<svg width="800" height="560" viewBox="0 0 800 560" fill="none" xmlns="http://www.w3.org/2000/svg">
  <rect width="800" height="560" rx="36" fill="#F7F3EA"/>
  <rect x="70" y="90" width="660" height="380" rx="28" fill="#FFFFFF"/>
  <rect x="120" y="180" width="240" height="210" rx="16" fill="#E7F0E8"/>
  <rect x="390" y="210" width="240" height="180" rx="16" fill="#DCEBDA"/>
  <rect x="145" y="210" width="70" height="110" rx="8" fill="#1F6F43"/>
  <rect x="230" y="245" width="90" height="75" rx="8" fill="#7BAE7F"/>
  <path d="M254 150L130 250H378L254 150Z" fill="#1F6F43"/>
  <path d="M415 180L515 240V390H415V180Z" fill="#7BAE7F"/>
  <rect x="445" y="255" width="70" height="70" rx="8" fill="#FAF9F6"/>
  <rect x="530" y="255" width="70" height="70" rx="8" fill="#FAF9F6"/>
  <path d="M120 390H660" stroke="#1F6F43" stroke-width="12" stroke-linecap="round"/>
  <circle cx="610" cy="150" r="50" fill="#7BAE7F"/>
  <path d="M585 155L610 130L635 155" stroke="#FAF9F6" stroke-width="12" stroke-linecap="round" stroke-linejoin="round"/>
  <path d="M570 170H650" stroke="#FAF9F6" stroke-width="12" stroke-linecap="round"/>
  <rect x="360" y="140" width="90" height="50" rx="10" fill="#1F6F43"/>
</svg>
